<?xml version="1.0" encoding="utf-8"?>
<!-- Generator: Adobe Illustrator 22.1.0, SVG Export Plug-In . SVG Version: 6.00 Build 0)  -->
<svg version="1.1" id="Layer_1" xmlns="http://www.w3.org/2000/svg" xmlns:xlink="http://www.w3.org/1999/xlink" x="0px" y="0px"
	 viewBox="0 0 833.2 483.6" style="enable-background:new 0 0 833.2 483.6;" xml:space="preserve">
<style type="text/css">
	.st0{fill:none;stroke:#662D91;stroke-width:2;stroke-linecap:round;stroke-linejoin:round;}
	.st1{fill:none;stroke:#662D91;stroke-width:2;stroke-linecap:round;stroke-linejoin:round;stroke-dasharray:0.1003,12.04;}
	.st2{fill:none;stroke:#E6E6E6;stroke-width:2;stroke-linecap:round;stroke-linejoin:round;}
	.st3{fill:none;stroke:#E6E6E6;stroke-width:2;stroke-linecap:round;stroke-linejoin:round;stroke-dasharray:0.1003,12.04;}
</style>
<g>
	<g>
		<g>
			<line class="st0" x1="112.9" y1="72" x2="112.9" y2="72"/>
			<line class="st1" x1="123.4" y1="78" x2="706.9" y2="415"/>
			<line class="st0" x1="712.1" y1="418" x2="712.2" y2="418"/>
		</g>
	</g>
	<g>
		<g>
			<line class="st0" x1="104.3" y1="77" x2="104.3" y2="77"/>
			<line class="st1" x1="114.7" y1="83" x2="698.3" y2="419.9"/>
			<line class="st0" x1="703.5" y1="422.9" x2="703.6" y2="423"/>
		</g>
	</g>
	<g>
		<g>
			<line class="st0" x1="95.7" y1="81.9" x2="95.7" y2="82"/>
			<line class="st1" x1="106.1" y1="88" x2="689.7" y2="424.9"/>
			<line class="st0" x1="694.9" y1="427.9" x2="695" y2="427.9"/>
		</g>
	</g>
	<g>
		<g>
			<line class="st0" x1="87.1" y1="86.9" x2="87.1" y2="86.9"/>
			<line class="st1" x1="97.5" y1="93" x2="681.1" y2="429.9"/>
			<line class="st0" x1="686.3" y1="432.9" x2="686.4" y2="432.9"/>
		</g>
	</g>
	<g>
		<g>
			<line class="st0" x1="78.5" y1="91.9" x2="78.5" y2="91.9"/>
			<line class="st1" x1="88.9" y1="97.9" x2="672.5" y2="434.8"/>
			<line class="st0" x1="677.7" y1="437.9" x2="677.7" y2="437.9"/>
		</g>
	</g>
	<g>
		<g>
			<line class="st0" x1="69.8" y1="96.8" x2="69.9" y2="96.9"/>
			<line class="st1" x1="80.3" y1="102.9" x2="663.9" y2="439.8"/>
			<line class="st0" x1="669.1" y1="442.8" x2="669.1" y2="442.8"/>
		</g>
	</g>
	<g>
		<g>
			<line class="st0" x1="61.2" y1="101.8" x2="61.3" y2="101.8"/>
			<line class="st1" x1="71.7" y1="107.9" x2="655.3" y2="444.8"/>
			<line class="st0" x1="660.5" y1="447.8" x2="660.5" y2="447.8"/>
		</g>
	</g>
	<g>
		<g>
			<line class="st0" x1="52.6" y1="106.8" x2="52.7" y2="106.8"/>
			<line class="st1" x1="63.1" y1="112.8" x2="646.7" y2="449.7"/>
			<line class="st0" x1="651.9" y1="452.8" x2="651.9" y2="452.8"/>
		</g>
	</g>
	<g>
		<g>
			<line class="st0" x1="44" y1="111.8" x2="44.1" y2="111.8"/>
			<line class="st1" x1="54.5" y1="117.8" x2="638.1" y2="454.7"/>
			<line class="st0" x1="643.3" y1="457.7" x2="643.3" y2="457.8"/>
		</g>
	</g>
	<g>
		<g>
			<line class="st0" x1="35.4" y1="116.7" x2="35.5" y2="116.7"/>
			<line class="st1" x1="45.9" y1="122.8" x2="629.5" y2="459.7"/>
			<line class="st0" x1="634.7" y1="462.7" x2="634.7" y2="462.7"/>
		</g>
	</g>
	<g>
		<g>
			<line class="st0" x1="26.8" y1="121.7" x2="26.9" y2="121.7"/>
			<line class="st1" x1="37.3" y1="127.7" x2="620.9" y2="464.7"/>
			<line class="st0" x1="626.1" y1="467.7" x2="626.1" y2="467.7"/>
		</g>
	</g>
	<g>
		<g>
			<line class="st0" x1="18.2" y1="126.7" x2="18.3" y2="126.7"/>
			<line class="st1" x1="28.7" y1="132.7" x2="612.2" y2="469.6"/>
			<line class="st0" x1="617.5" y1="472.6" x2="617.5" y2="472.7"/>
		</g>
	</g>
	<g>
		<g>
			<line class="st0" x1="9.6" y1="131.6" x2="9.6" y2="131.7"/>
			<line class="st1" x1="20.1" y1="137.7" x2="603.6" y2="474.6"/>
			<line class="st0" x1="608.9" y1="477.6" x2="608.9" y2="477.6"/>
		</g>
	</g>
	<g>
		<g>
			<line class="st0" x1="1" y1="136.6" x2="1" y2="136.6"/>
			<line class="st1" x1="11.5" y1="142.6" x2="595" y2="479.6"/>
			<line class="st0" x1="600.2" y1="482.6" x2="600.3" y2="482.6"/>
		</g>
	</g>
</g>
<g>
	<g>
		<g>
			<line class="st2" x1="232.9" y1="1" x2="232.9" y2="1"/>
			<line class="st3" x1="243.4" y1="7" x2="826.9" y2="344"/>
			<line class="st2" x1="832.1" y1="347" x2="832.2" y2="347"/>
		</g>
	</g>
	<g>
		<g>
			<line class="st2" x1="224.3" y1="6" x2="224.3" y2="6"/>
			<line class="st3" x1="234.7" y1="12" x2="818.3" y2="348.9"/>
			<line class="st2" x1="823.5" y1="351.9" x2="823.6" y2="352"/>
		</g>
	</g>
	<g>
		<g>
			<line class="st2" x1="215.7" y1="10.9" x2="215.7" y2="11"/>
			<line class="st3" x1="226.1" y1="17" x2="809.7" y2="353.9"/>
			<line class="st2" x1="814.9" y1="356.9" x2="815" y2="356.9"/>
		</g>
	</g>
	<g>
		<g>
			<line class="st2" x1="207.1" y1="15.9" x2="207.1" y2="15.9"/>
			<line class="st3" x1="217.5" y1="22" x2="801.1" y2="358.9"/>
			<line class="st2" x1="806.3" y1="361.9" x2="806.4" y2="361.9"/>
		</g>
	</g>
	<g>
		<g>
			<line class="st2" x1="198.5" y1="20.9" x2="198.5" y2="20.9"/>
			<line class="st3" x1="208.9" y1="26.9" x2="792.5" y2="363.8"/>
			<line class="st2" x1="797.7" y1="366.9" x2="797.7" y2="366.9"/>
		</g>
	</g>
	<g>
		<g>
			<line class="st2" x1="189.8" y1="25.8" x2="189.9" y2="25.9"/>
			<line class="st3" x1="200.3" y1="31.9" x2="783.9" y2="368.8"/>
			<line class="st2" x1="789.1" y1="371.8" x2="789.1" y2="371.8"/>
		</g>
	</g>
	<g>
		<g>
			<line class="st2" x1="181.2" y1="30.8" x2="181.3" y2="30.8"/>
			<line class="st3" x1="191.7" y1="36.9" x2="775.3" y2="373.8"/>
			<line class="st2" x1="780.5" y1="376.8" x2="780.5" y2="376.8"/>
		</g>
	</g>
	<g>
		<g>
			<line class="st2" x1="172.6" y1="35.8" x2="172.7" y2="35.8"/>
			<line class="st3" x1="183.1" y1="41.8" x2="766.7" y2="378.7"/>
			<line class="st2" x1="771.9" y1="381.8" x2="771.9" y2="381.8"/>
		</g>
	</g>
	<g>
		<g>
			<line class="st2" x1="164" y1="40.8" x2="164.1" y2="40.8"/>
			<line class="st3" x1="174.5" y1="46.8" x2="758.1" y2="383.7"/>
			<line class="st2" x1="763.3" y1="386.7" x2="763.3" y2="386.8"/>
		</g>
	</g>
	<g>
		<g>
			<line class="st2" x1="155.4" y1="45.7" x2="155.5" y2="45.7"/>
			<line class="st3" x1="165.9" y1="51.8" x2="749.5" y2="388.7"/>
			<line class="st2" x1="754.7" y1="391.7" x2="754.7" y2="391.7"/>
		</g>
	</g>
	<g>
		<g>
			<line class="st2" x1="146.8" y1="50.7" x2="146.9" y2="50.7"/>
			<line class="st3" x1="157.3" y1="56.7" x2="740.9" y2="393.7"/>
			<line class="st2" x1="746.1" y1="396.7" x2="746.1" y2="396.7"/>
		</g>
	</g>
	<g>
		<g>
			<line class="st2" x1="138.2" y1="55.7" x2="138.3" y2="55.7"/>
			<line class="st3" x1="148.7" y1="61.7" x2="732.2" y2="398.6"/>
			<line class="st2" x1="737.5" y1="401.6" x2="737.5" y2="401.7"/>
		</g>
	</g>
	<g>
		<g>
			<line class="st2" x1="129.6" y1="60.6" x2="129.6" y2="60.7"/>
			<line class="st3" x1="140.1" y1="66.7" x2="723.6" y2="403.6"/>
			<line class="st2" x1="728.9" y1="406.6" x2="728.9" y2="406.6"/>
		</g>
	</g>
	<g>
		<g>
			<line class="st2" x1="121" y1="65.6" x2="121" y2="65.6"/>
			<line class="st3" x1="131.5" y1="71.6" x2="715" y2="408.6"/>
			<line class="st2" x1="720.2" y1="411.6" x2="720.3" y2="411.6"/>
		</g>
	</g>
</g>
</svg>
