<?xml version="1.0" encoding="utf-8"?>
<!-- Generator: Adobe Illustrator 23.0.3, SVG Export Plug-In . SVG Version: 6.00 Build 0)  -->
<svg version="1.1" id="Layer_1" xmlns="http://www.w3.org/2000/svg" xmlns:xlink="http://www.w3.org/1999/xlink" x="0px" y="0px"
	 viewBox="0 0 248.58 283.51" style="enable-background:new 0 0 248.58 283.51;" xml:space="preserve">
<style type="text/css">
	.st0{fill:#FFFFFF;}
	.st1{fill:#56388A;}
</style>
<g>
	<polygon class="st0" points="0,94.83 113.43,29.34 113.43,71.8 0,137.29 	"/>
	<polygon class="st0" points="0,241.05 95.57,185.88 95.57,228.33 0,283.51 	"/>
	<polygon class="st0" points="0,192.37 248.58,48.85 248.58,91.31 0,234.83 	"/>
	<polygon class="st0" points="0,143.52 248.58,0 248.58,42.46 0,185.97 	"/>
	<g>
		<path class="st1" d="M20,116.56c-7.57,4.37-9,0.28-9-7.92S12.86,94.13,20,90c2.86-1.65,4.43-1.74,5.86-1.74l-1.29,4.35
			c-1.43,0.17-2.71,0.58-4.43,1.57c-3.57,2.06-4.57,5.59-4.57,11.49c0,6.23,0.57,9.01,5.14,6.37c0.43-0.25,0.86-0.49,1.14-0.82v-8.2
			l3.86-2.23v11.48C24.86,113.1,22.86,114.91,20,116.56z"/>
		<path class="st1" d="M45.43,85.98c-1,0.25-1.71,0.33-3,1.08c-1.71,0.99-3.43,2.96-4.14,4.36v10.16l6-3.46v3.93l-14.43,8.33v-3.93
			l4.14-2.39V91.76l-4.14,2.39v-3.61l8.43-4.87v2.62c0.86-1.81,2.14-4.35,5-6c1.57-0.91,2.14-0.75,2.86-0.99L45.43,85.98z"/>
		<path class="st1" d="M56.43,95.53C51,98.66,49,96.05,49,89.65c0-6.72,2.57-12.14,7.71-15.11c5.86-3.38,7.43-0.35,7.43,6.2
			C64,87.71,61.43,92.64,56.43,95.53z M56.57,78.56c-3,1.73-3.29,5.01-3.29,8.45c0,3.77,0.57,6.06,3.43,4.41s3.14-4.6,3.14-8.21
			C59.72,79.86,59.57,76.83,56.57,78.56z"/>
		<path class="st1" d="M78.72,82.66c-3.29,1.9-7.29,4.21-7.29-2.02V70.15l-3.71,2.14v-3.61l3.71-2.14v-4.1l4.14-2.39v4.1L83,59.86
			v3.61l-7.43,4.29v10.16c0,1.97,1.14,1.64,3,0.56c1.43-0.82,4-2.64,4.57-3.3l0.43,3.52C82.29,80.11,80.29,81.75,78.72,82.66z"/>
		<path class="st1" d="M91.72,66.63c0.14,4.02,2.14,3.19,4.57,1.79c1.14-0.66,3.57-2.23,5-3.38l0.57,3.44
			c-1.57,1.4-3.71,3.13-6,4.45c-5.14,2.97-8.43,2.74-8.43-5.13c0-8.2,3-12.55,8-15.44c5-2.89,6.57,0.47,6.57,6.7v1.8l-10.29,5.94
			V66.63z M95,56.21c-1.86,1.07-3,3.21-3.14,6.9l5.86-3.38C97.72,56.12,96.86,55.14,95,56.21z"/>
		<path class="st1" d="M11.57,170.77v-25.9l13.57-7.84v3.93l-9.29,5.36v7.05l8.86-5.11v3.77l-8.86,5.11v7.21l9.43-5.44v3.93
			L11.57,170.77z"/>
		<path class="st1" d="M40.29,144.19l6.14,6.45l-4.71,2.72l-4.14-4.82l-4,9.52l-4.71,2.72L35,147.24l-6.14-6.45l4.71-2.72l4,4.74
			l4-9.36l4.71-2.72L40.29,144.19z"/>
		<path class="st1" d="M55.86,145.53c-1,0.58-1.43,0.82-2.29,1.16v7.87l-4.29,2.47v-28.03l4.29-2.47v1.8
			c0.86-1.31,2.43-3.53,4.29-4.61c4-2.31,6.14-0.76,6.14,5.96C64,138.04,60.72,142.72,55.86,145.53z M56.43,128.64
			c-1.14,0.66-2.29,1.98-2.86,2.63v11.48c0.57-0.17,1-0.41,2.43-1.24c3.14-1.81,3.71-4.93,3.71-9.03
			C59.72,128.87,59.14,127.07,56.43,128.64z"/>
		<path class="st1" d="M72.57,127.35c0.14,4.02,2.14,3.19,4.57,1.79c1.14-0.66,3.57-2.23,5-3.38l0.57,3.44
			c-1.57,1.4-3.71,3.13-6,4.45c-5.14,2.97-8.43,2.74-8.43-5.13c0-8.2,3-12.55,8-15.44c5-2.89,6.57,0.47,6.57,6.7v1.8l-10.29,5.94
			C72.57,127.52,72.57,127.35,72.57,127.35z M75.86,116.93c-1.86,1.07-3,3.21-3.14,6.9l5.86-3.38
			C78.57,117,77.72,115.86,75.86,116.93z"/>
		<path class="st1" d="M102.72,102.74c-1,0.25-1.71,0.33-3,1.08c-1.71,0.99-3.43,2.96-4.14,4.36v10.16l6-3.46v3.93l-14.43,8.33
			v-3.93l4.29-2.47v-12.29l-4.14,2.39v-3.61l8.43-4.87v2.62c0.86-1.81,2.14-4.35,5-6c1.57-0.91,2.14-0.75,2.86-0.99L102.72,102.74z"
			/>
		<path class="st1" d="M116.86,110.31c-3.29,1.9-7.29,4.21-7.29-2.02V97.79l-3.71,2.14v-3.61l3.71-2.14v-4.1l4.14-2.39v4.1
			l7.43-4.29v3.61l-7.43,4.29v10.16c0,1.97,1.14,1.64,3,0.56c1.43-0.82,4-2.64,4.57-3.3l0.43,3.52
			C120.57,107.84,118.43,109.4,116.86,110.31z"/>
		<path class="st1" d="M126.15,104.62v-3.93l5.43-3.13V85.26l-5,2.89v-3.61l9.29-5.36v15.9l5.29-3.05v3.93L126.15,104.62z
			 M133.72,77.63l-3.14-1.79l3.14-5.42l3.14,1.79L133.72,77.63z"/>
		<path class="st1" d="M151.29,90.43c-2.57,1.48-4.57,2.31-6.14,2.73l0.57-4.1c2-0.66,3.71-1.49,5.29-2.4
			c2.71-1.57,4.29-2.97,4.29-4.44c0-3.28-9.71,4.3-9.71-3.24c0-4.1,3.71-8.05,7.43-10.19c2.14-1.24,4-1.98,5.71-2.32l-0.86,4.1
			c-1.57,0.42-3,1.08-4.86,2.15c-2,1.15-3.14,2.47-3.14,3.62c0,3.44,9.71-3.64,9.71,3.24C159.29,84.66,154.15,88.78,151.29,90.43z"
			/>
		<path class="st1" d="M168.29,72.09c0.14,4.02,2.14,3.19,4.57,1.79c1.14-0.66,3.57-2.23,5-3.38l0.57,3.44
			c-1.57,1.4-3.71,3.13-6,4.45c-5.14,2.97-8.43,2.74-8.43-5.13c0-8.2,3-12.55,8-15.44c5-2.89,6.57,0.47,6.57,6.7v1.8l-10.29,5.94
			V72.09z M171.58,61.67c-1.86,1.07-3,3.21-3.14,6.9l5.86-3.38C174.29,61.74,173.29,60.68,171.58,61.67z"/>
		<path class="st1" d="M193.29,65.85v-1.8c-0.71,1.4-2.29,3.45-4,4.44c-3.14,1.81-6.57,2.15-6.57-6.7c0-6.89,3.14-12.14,8.14-15.03
			c1.14-0.66,1.71-0.83,2.43-1.07v-7.38l4.29-2.47v27.54L193.29,65.85z M193.29,49.46c-0.57,0.17-1.29,0.41-2.29,0.99
			c-3.29,1.9-4,5.42-4,9.03c0,4.75,1.14,5.57,3.29,4.33c1.29-0.74,2.29-1.98,3-2.88V49.46z"/>
		<path class="st1" d="M217.15,52.24c-2,1.32-4.57,2.48-5,0.59c-0.71,1.4-2.14,3.53-4.57,4.93C204,59.83,202,59.02,202,55.25
			c0-4.92,4-8.21,7.14-10.03l2.57-1.48v-2.13c0-2.3-1.14-1.96-3.57-0.56c-1.71,0.99-2.86,1.98-4.14,3.21l-0.86-3.28
			c1.14-1.15,3.29-3.21,5.86-4.69c3.57-2.06,7-3.39,7,1.7v9.84c0,0.98,0.57,0.82,1.43,0.49L217.15,52.24z M211.72,46.53l-2.29,1.48
			c-2.86,1.81-3.29,3.21-3.29,4.52c0,1.64,0.71,1.88,2,1.14c1.43-0.82,2.86-2.47,3.57-3.21L211.72,46.53L211.72,46.53z"/>
		<path class="st1" d="M228.29,53.84c-2.71,1.57-4.71,2.23-6.14,2.56l0.71-4.35c1.57-0.58,3.57-1.41,4.86-2.15
			c2.71-1.57,3.86-2.72,3.86-6.16V42.6c-0.57,1.31-2,2.63-3.29,3.37c-3.57,2.06-7.14,2.98-7.14-6.04c0-7.05,3.43-12.47,8.43-15.36
			c2-1.15,3.57-1.73,6.29-2.81v20.16C235.72,47.42,232.15,51.62,228.29,53.84z M231.43,27.77c-0.43,0.08-1,0.25-2,0.83
			c-3.43,1.98-4.14,5.01-4.14,8.95c0,4.75,1,5.82,3.86,4.17c1.14-0.66,1.86-1.56,2.43-2.22v-11.8L231.43,27.77z"/>
		<path class="st1" d="M20.57,215.41l-5.29-13.51l-1-3.36l-0.14,0.08l0.29,3.93v16.23l-3.86,2.23v-25.74l5.29-3.05l5.43,13.59
			l1,3.52l0.14-0.08l-0.29-3.93V188.6l4-2.31v25.9L20.57,215.41z"/>
		<path class="st1" d="M30.57,209.63v-3.93l5.43-3.13v-12.29l-5,2.89v-3.61l9.29-5.36v16.07l5.29-3.05v3.93l-15,8.66V209.63z
			 M38.14,182.64L35,180.85l3.14-5.42l3.14,1.79L38.14,182.64z"/>
		<path class="st1" d="M53.57,187.99c0.14,4.02,2.14,3.19,4.57,1.79c1.14-0.66,3.57-2.23,5-3.38l0.57,3.44
			c-1.57,1.4-3.71,3.13-6,4.45c-5.14,2.97-8.43,2.74-8.43-5.13c0-8.2,3-12.55,8-15.44s6.57,0.47,6.57,6.7v1.8l-10.29,5.94
			C53.57,188.16,53.57,187.99,53.57,187.99z M56.86,177.74c-1.86,1.07-3,3.21-3.14,6.9l5.86-3.38
			C59.57,177.64,58.57,176.75,56.86,177.74z"/>
		<path class="st1" d="M78.72,181.84v-2.13c-1,1.56-2.43,4.03-5,5.51c-5.29,3.05-5.14-0.64-5.14-4.9v-12.62l4.14-2.39v12.13
			c0,2.95,0.14,4.02,2.29,2.78c1.43-0.82,3-2.72,3.57-3.7v-14.59l4.29-2.47v20C82.86,179.45,78.72,181.84,78.72,181.84z"/>
		<path class="st1" d="M101.15,168.89l-4.71,2.72l-1.71-10.81l0,0l-2.29,13.12l-4.29,2.47l-1.71-19.01l3.57-2.06l0.71,15.82
			l0.14-0.08l2-12.3l3.57-2.06l1.71,10.16l0.14-0.08l1.29-16.97l3.57-2.06L101.15,168.89z"/>
		<path class="st1" d="M110.86,154.92c0.14,4.02,2.14,3.19,4.57,1.79c1.14-0.66,3.57-2.23,5-3.38l0.57,3.44
			c-1.57,1.4-3.71,3.13-6,4.45c-5.14,2.97-8.43,2.74-8.43-5.13c0-8.2,3-12.55,8-15.44s6.57,0.47,6.57,6.7v1.8L110.86,154.92
			L110.86,154.92z M114.15,144.66c-1.86,1.07-3,3.21-3.14,6.9l5.86-3.38C116.86,144.57,116,143.59,114.15,144.66z"/>
		<path class="st1" d="M156.29,137.05v-15.57l0.43-5.99l-0.14,0.08l-1.14,5.58l-1.86,7.96l-3.57,2.06l-1.57-5.98l-0.86-4.42
			l-0.14,0.08l0.43,5.49v15.57l-3.57,2.06l0.29-26.07l4.71-2.72l1.57,6.63l1,4.67l0.14-0.08l1.29-5.99l2-8.7l4.43-2.56l0.29,25.74
			L156.29,137.05z"/>
		<path class="st1" d="M168.29,121.76c0.14,4.02,2.14,3.19,4.57,1.79c1.14-0.66,3.57-2.23,5-3.38l0.57,3.44
			c-1.57,1.4-3.71,3.13-6,4.45c-5.14,2.97-8.43,2.74-8.43-5.13c0-8.2,3-12.55,8-15.44c5-2.89,6.57,0.47,6.57,6.7v1.8L168.29,121.76
			L168.29,121.76z M171.58,111.5c-1.86,1.07-3,3.21-3.14,6.9l5.86-3.38C174.29,111.41,173.29,110.51,171.58,111.5z"/>
		<path class="st1" d="M193.29,115.69v-1.8c-0.71,1.4-2.29,3.45-4,4.44c-3.14,1.81-6.57,2.15-6.57-6.7c0-6.89,3.14-12.14,8.14-15.03
			c1.14-0.66,1.71-0.83,2.43-1.07v-7.38l4.29-2.47v27.54L193.29,115.69z M193.29,99.13c-0.57,0.17-1.29,0.41-2.29,0.99
			c-3.29,1.9-4,5.42-4,9.03c0,4.75,1.14,5.57,3.29,4.33c1.29-0.74,2.29-1.98,3-2.88V99.13z"/>
		<path class="st1" d="M202.72,110.25v-3.93l5.43-3.13V90.88l-5,2.89v-3.61l9.29-5.36v16.07l5.29-3.05v3.93l-15,8.66V110.25z
			 M210.15,83.33L207,81.54l3.14-5.42l3.14,1.79L210.15,83.33z"/>
		<path class="st1" d="M236.29,91.03c-2,1.32-4.57,2.48-5,0.59c-0.71,1.4-2.14,3.53-4.57,4.93c-3.57,2.06-5.57,1.25-5.57-2.52
			c0-4.92,4-8.21,7.14-10.03l2.57-1.48v-2.13c0-2.3-1.14-1.96-3.57-0.56c-1.71,0.99-2.86,1.98-4.14,3.21l-0.86-3.28
			c1.14-1.15,3.29-3.21,5.86-4.69c3.57-2.06,7-3.39,7,1.7v9.84c0,0.98,0.57,0.82,1.43,0.49L236.29,91.03z M230.86,85.31l-2.29,1.48
			c-2.86,1.81-3.29,3.21-3.29,4.52c0,1.64,0.71,1.88,2,1.14c1.43-0.82,2.86-2.47,3.57-3.21L230.86,85.31L230.86,85.31z"/>
		<path class="st1" d="M11.14,270.52v-3.44c1.71-2.96,9.57-15.69,9.57-19.95c0-3.28-1.14-3.44-3.29-2.2
			c-2.29,1.32-3.71,2.96-4.71,3.87l-1.43-2.62c1.43-1.81,3-3.54,6.29-5.43c6.14-3.55,7.43-0.03,7.43,3.42
			c0,5.41-4.29,12.64-8.57,19.37l9.43-5.44v3.93L11.14,270.52z"/>
		<path class="st1" d="M37.29,255.76c-6.86,3.96-7.43-1.61-7.43-8.66c0-6.72,0.57-13.94,8-18.23c7.29-4.21,7.29,2.51,7.29,8.58
			C45,245.4,44,251.88,37.29,255.76z M37.57,233.13C34.86,234.7,34,237.82,34,244.7c0,6.07,1,8.44,3.43,7.04
			c2.86-1.65,3.57-5.34,3.57-11.57C40.86,233.69,40.29,231.57,37.57,233.13z M37.43,244.36l-1.71-0.98l1.71-2.96l1.71,0.98
			L37.43,244.36z"/>
		<path class="st1" d="M49.14,248.58v-3.93l5.29-3.05v-16.88l-5.14,3.95v-3.44l9.43-8.56v22.29l5.29-3.05v3.93L49.14,248.58
			L49.14,248.58z"/>
	</g>
	<g>
		<path class="st1" d="M72.86,235.05c-1.29,0.74-2.14,1.07-3.14,1.16l1-4.35c0,0,1.14-0.33,2.29-0.99c4.43-2.56,5.43-5.43,5.86-9.12
			c-1,0.91-1.71,1.65-3.57,2.72c-4.86,2.8-6.57,0.35-6.57-4.57c0-5.41,2.86-10.34,7.29-12.89c5.29-3.05,7.57-0.27,7.57,7.1
			C83.43,226.33,79.14,231.43,72.86,235.05z M75.86,211.19c-2.14,1.24-3.14,3.62-3.14,6.08c0,4.1,1,4.34,3,3.19
			c1.43-0.82,2.43-1.73,3.43-2.64c0-0.49,0-1.15,0-1.48C79.14,212.41,78.57,209.62,75.86,211.19z"/>
	</g>
</g>
</svg>
