<?xml version="1.0" encoding="utf-8"?>
<!-- Generator: Adobe Illustrator 22.1.0, SVG Export Plug-In . SVG Version: 6.00 Build 0)  -->
<svg version="1.1" id="Layer_1" xmlns="http://www.w3.org/2000/svg" xmlns:xlink="http://www.w3.org/1999/xlink" x="0px" y="0px"
	 viewBox="0 0 256 256" style="enable-background:new 0 0 256 256;" xml:space="preserve">
<style type="text/css">
	.st0{fill:#553889;}
</style>
<g>
	<path class="st0" d="M181.7,136c-7.1,3.6-15.3,11.8-15.3,17.8c0,6.8,3.6,12.2,16.2,12.2c11.5,0,15.4-4.9,15.4-13.3
		C198.1,145.6,187.4,139.6,181.7,136z"/>
	<path class="st0" d="M182,121c6.2-3.5,12.9-9.7,12.9-15.1c0-3.8-1.1-11-11.5-11c-10.6,0-13.5,5.4-13.5,10.8
		C169.9,112.2,177,117.7,182,121z"/>
	<path class="st0" d="M-0.2-0.5v256h256v-256H-0.2z M58.9,93.2v20.3h-19V99c0-11.1,4-19.2,8.5-24.9h15.4
		C60,80.7,58.9,89.3,58.9,93.2z M139.5,179.5H75.3v-15.1h22.9v-64l-22.6,4V91.4l41-11.9v84.9h22.9V179.5z M182,180.9
		c-19.7,0-32.9-7.5-32.9-25c0-12.6,9.7-22.1,20.4-27.5c-9.2-5.7-16.7-13.5-16.7-23.7c0-15.7,11.7-24.3,30.6-24.3
		c19.4,0,29,10.6,29,23.7c0,11.4-9.3,19.3-18.1,24.3c9.9,5.1,21.4,14.4,21.4,25.7C215.7,172.7,202.8,180.9,182,180.9z"/>
</g>
</svg>
