<svg xmlns="http://www.w3.org/2000/svg" viewBox="0 0 319.59 281.28"><defs><style>.cls-1{fill:#fff;}</style></defs><title>Asset 2</title><g id="Layer_2" data-name="Layer 2"><g id="Layer_1-2" data-name="Layer 1"><path class="cls-1" d="M70.27,62.61a56.69,56.69,0,0,0,26.19,42.18l5.35,51.72,60.26-6.24-2.18-21.08,10.54-1.09c12.3-1.27,19.76-10,18.48-22.3L187.55,92.6l-10.29,1.06a2.36,2.36,0,1,1-.48-4.69L206,86l10.89,105.23L306.11,182,295.23,76.72l20.26-2.1a4.56,4.56,0,0,0,4.08-5c-.07-.63-.26-2.47-3.83-3.84-7.59.22-14.76.3-21.62.3L290.88,34.7l-89.24,9.23,1.43,13.83c-13.67-3.1-19.73-5.87-19.73-5.87s-2.51-12.18-4.09-16.78C172.15,14.43,146.53-2.38,120.9.28A56.78,56.78,0,0,0,70.27,62.61ZM209.51,50.33l75-7.76L286.92,66c-13.93-.16-26.29-.75-37.15-1.61v0c-5.24.54-9.1,4.76-8.62,9.42s5.12,8,10.37,7.46v0l36.59-3.79,10.15,98.1-75,7.76Zm-46.36,7.36a5.53,5.53,0,1,1,6.08,4.94A5.53,5.53,0,0,1,163.14,57.69ZM100.88,66.1c1.62-3.63,4.67-6.3,9.07-7.95,6.64-2.48,14.13,1.43,17,8.9a2.35,2.35,0,1,1-4.39,1.71c-1.94-5-6.87-7.75-11-6.2-3.17,1.19-5.34,3-6.42,5.46-1.76,3.94-.55,8.81.78,12.2A16,16,0,0,0,113,88.54a10.62,10.62,0,0,0,9.07.81,2.36,2.36,0,0,1,1.72,4.39,14.42,14.42,0,0,1-3.79.92,15.87,15.87,0,0,1-9.26-2,20.7,20.7,0,0,1-9.22-10.73C99.2,75.88,99,70.41,100.88,66.1Z"/><path class="cls-1" d="M101.84,145.3C100,161.47,104.23,178,101.12,194c-3.39,17.48-17.34,26.69-32.48,33.69C44.36,238.92,16.07,246.68.26,270c-1.09,1.6,1.51,3.11,2.59,1.51,17.38-25.63,50-31.41,75.67-45.36,13.26-7.21,23.25-17.58,25.77-32.89,2.61-15.88-1.22-32,.55-48,.21-1.92-2.79-1.9-3,0Z"/><path class="cls-1" d="M158.49,145.11c3.07,17.28-.83,35.67,5,52.48,5.34,15.38,19.21,23.74,33.72,29.26,23.43,8.91,48.45,12.95,70.81,24.76,11.86,6.27,23.62,15.08,27.32,28.6a1.5,1.5,0,0,0,2.89-.8c-6.34-23.18-33.11-33.78-53.59-40.85-11.89-4.11-24-7.35-36-11.06C194,223,177.47,217.09,169.35,203.23c-10.22-17.44-4.58-39.83-8-58.92-.34-1.9-3.23-1.09-2.89.8Z"/></g></g></svg>