<?xml version="1.0" encoding="utf-8"?>
<!-- Generator: Adobe Illustrator 23.0.3, SVG Export Plug-In . SVG Version: 6.00 Build 0)  -->
<svg version="1.1" id="Layer_1" xmlns="http://www.w3.org/2000/svg" xmlns:xlink="http://www.w3.org/1999/xlink" x="0px" y="0px"
	 viewBox="0 0 174 117" style="enable-background:new 0 0 174 117;" xml:space="preserve">
<style type="text/css">
	.st0{fill:#FFFFFF;}
	.st1{fill:#553889;}
</style>
<rect y="0" class="st0" width="79.4" height="25.9"/>
<rect y="89.2" class="st0" width="66.9" height="25.9"/>
<rect y="59.5" class="st0" width="174" height="25.9"/>
<rect y="29.7" class="st0" width="174" height="25.9"/>
<g>
	<path class="st1" d="M14,20.3c-5.3,0-6.3-3-6.3-8S9,4.1,14,4.1c2,0,3.1,0.5,4.1,1l-0.9,2.2c-1-0.4-1.9-0.6-3.1-0.6
		c-2.5,0-3.2,1.8-3.2,5.4c0,3.8,0.4,5.7,3.6,5.7c0.3,0,0.6,0,0.8-0.1v-5H18v7C17.4,19.9,16,20.3,14,20.3z"/>
	<path class="st1" d="M31.8,10.6c-0.7-0.2-1.2-0.4-2.1-0.4c-1.2,0-2.4,0.6-2.9,1.2v6.2H31V20H20.9v-2.4h2.9v-7.5h-2.9V7.9h5.9v1.6
		c0.6-0.8,1.5-1.9,3.5-1.9c1.1,0,1.5,0.3,2,0.4L31.8,10.6z"/>
	<path class="st1" d="M39.5,20.3c-3.8,0-5.2-2.3-5.2-6.2c0-4.1,1.8-6.5,5.4-6.5c4.1,0,5.2,2.4,5.2,6.4C44.8,18.2,43,20.3,39.5,20.3z
		 M39.6,10c-2.1,0-2.3,1.9-2.3,4c0,2.3,0.4,3.9,2.4,3.9s2.2-1.7,2.2-3.9C41.8,11.9,41.7,10,39.6,10z"/>
	<path class="st1" d="M55.1,20.3c-2.3,0-5.1,0-5.1-3.8v-6.4h-2.6V7.9H50V5.4h2.9v2.5h5.2v2.2h-5.2v6.2c0,1.2,0.8,1.4,2.1,1.4
		c1,0,2.8-0.2,3.2-0.4l0.3,2.3C57.6,20,56.2,20.3,55.1,20.3z"/>
	<path class="st1" d="M64.2,15.1c0.1,2.5,1.5,2.7,3.2,2.7c0.8,0,2.5-0.1,3.5-0.3l0.4,2.3c-1.1,0.3-2.6,0.6-4.2,0.6
		c-3.6,0-5.9-1.3-5.9-6.1c0-5,2.1-6.6,5.6-6.6s4.6,2.6,4.6,6.4v1.1h-7.2V15.1z M66.5,9.9c-1.3,0-2.1,0.9-2.2,3.1h4.1
		C68.4,10.8,67.8,9.9,66.5,9.9z"/>
	<path class="st1" d="M8.1,50.4V34.6h9.5V37h-6.5v4.3h6.2v2.3h-6.2V48h6.6v2.4H8.1z"/>
	<path class="st1" d="M28.2,44.3l4.3,6.1h-3.3L26.3,46l-2.8,4.4h-3.3l4.3-6.1l-4.3-6.1h3.3l2.8,4.3l2.8-4.3h3.3L28.2,44.3z"/>
	<path class="st1" d="M39.1,50.6c-0.7,0-1,0-1.6-0.1v4.8h-3V38.2h3v1.1c0.6-0.5,1.7-1.3,3-1.3c2.8,0,4.3,1.7,4.3,5.8
		C44.8,48.9,42.5,50.6,39.1,50.6z M39.5,40.5c-0.8,0-1.6,0.4-2,0.6v7c0.4,0.1,0.7,0.1,1.7,0.1c2.2,0,2.6-1.7,2.6-4.2
		C41.8,41.8,41.4,40.5,39.5,40.5z"/>
	<path class="st1" d="M50.8,45.4c0.1,2.5,1.5,2.7,3.2,2.7c0.8,0,2.5-0.1,3.5-0.3l0.4,2.3c-1.1,0.3-2.6,0.6-4.2,0.6
		c-3.6,0-5.9-1.3-5.9-6.1c0-5,2.1-6.6,5.6-6.6s4.6,2.6,4.6,6.4v1.1h-7.2V45.4z M53.1,40.2c-1.3,0-2.1,0.9-2.2,3.1H55
		C55,41.2,54.4,40.2,53.1,40.2z"/>
	<path class="st1" d="M71.9,41c-0.7-0.2-1.2-0.4-2.1-0.4c-1.2,0-2.4,0.6-2.9,1.2V48h4.2v2.4H61V48h3v-7.5h-2.9v-2.2H67v1.6
		c0.6-0.8,1.5-1.9,3.5-1.9c1.1,0,1.5,0.3,2,0.4L71.9,41z"/>
	<path class="st1" d="M81.8,50.6c-2.3,0-5.1,0-5.1-3.8v-6.4h-2.6v-2.2h2.6v-2.5h2.9v2.5h5.2v2.2h-5.2v6.2c0,1.2,0.8,1.4,2.1,1.4
		c1,0,2.8-0.2,3.2-0.4l0.3,2.3C84.4,50.4,82.9,50.6,81.8,50.6z"/>
	<path class="st1" d="M88.3,50.4V48h3.8v-7.5h-3.5v-2.2h6.5V48h3.7v2.4H88.3z M93.6,36.6l-2.2-2.2l2.2-2.2l2.2,2.2L93.6,36.6z"/>
	<path class="st1" d="M105.9,50.6c-1.8,0-3.2-0.2-4.3-0.5l0.4-2.3c1.4,0.3,2.6,0.4,3.7,0.4c1.9,0,3-0.3,3-1.2c0-2-6.8-0.8-6.8-5.4
		c0-2.5,2.6-3.6,5.2-3.6c1.5,0,2.8,0.2,4,0.6l-0.6,2.2c-1.1-0.3-2.1-0.4-3.4-0.4c-1.4,0-2.2,0.4-2.2,1.1c0,2.1,6.8,1.2,6.8,5.4
		C111.5,49.9,107.9,50.6,105.9,50.6z"/>
	<path class="st1" d="M117.8,45.4c0.1,2.5,1.5,2.7,3.2,2.7c0.8,0,2.5-0.1,3.5-0.3l0.4,2.3c-1.1,0.3-2.6,0.6-4.2,0.6
		c-3.6,0-5.9-1.3-5.9-6.1c0-5,2.1-6.6,5.6-6.6s4.6,2.6,4.6,6.4v1.1h-7.2V45.4z M120.1,40.2c-1.3,0-2.1,0.9-2.2,3.1h4.1
		C122,41.2,121.3,40.2,120.1,40.2z"/>
	<path class="st1" d="M135.3,50.4v-1.1c-0.5,0.6-1.6,1.3-2.8,1.3c-2.2,0-4.6-1-4.6-6.4c0-4.2,2.2-6.3,5.7-6.3c0.8,0,1.2,0.1,1.7,0.2
		v-4.5h3v16.8H135.3z M135.3,40.4c-0.4-0.1-0.9-0.2-1.6-0.2c-2.3,0-2.8,1.9-2.8,4.1c0,2.9,0.8,3.8,2.3,3.8c0.9,0,1.6-0.4,2.1-0.7
		V40.4z"/>
	<path class="st1" d="M152,50.5c-1.4,0.1-3.2-0.1-3.5-1.4c-0.5,0.6-1.5,1.4-3.2,1.4c-2.5,0-3.9-1.2-3.9-3.5c0-3,2.8-3.6,5-3.6h1.8
		v-1.3c0-1.4-0.8-1.6-2.5-1.6c-1.2,0-2,0.2-2.9,0.5l-0.6-2.3c0.8-0.3,2.3-0.8,4.1-0.8c2.5,0,4.9,0.4,4.9,3.5v6c0,0.6,0.4,0.7,1,0.8
		L152,50.5z M148.2,45.1l-1.6,0.1c-2,0.1-2.3,0.8-2.3,1.6c0,1,0.5,1.4,1.4,1.4c1,0,2-0.5,2.5-0.7L148.2,45.1L148.2,45.1z"/>
	<path class="st1" d="M159.8,55.4c-1.9,0-3.3-0.3-4.3-0.6l0.5-2.4c1.1,0.2,2.5,0.4,3.4,0.4c1.9,0,2.7-0.3,2.7-2.4v-0.7
		c-0.4,0.6-1.4,0.9-2.3,0.9c-2.5,0-5-0.7-5-6.2c0-4.3,2.4-6.4,5.9-6.4c1.4,0,2.5,0.2,4.4,0.5v12.3C165,54.1,162.5,55.4,159.8,55.4z
		 M162,40.6c-0.3-0.1-0.7-0.2-1.4-0.2c-2.4,0-2.9,1.6-2.9,4c0,2.9,0.7,3.9,2.7,3.9c0.8,0,1.3-0.3,1.7-0.5v-7.2H162z"/>
	<path class="st1" d="M14.4,80.8l-3.7-10.1L10,68.3H9.9l0.2,2.5v9.9H7.4V65h3.7l3.8,10.2l0.7,2.5h0.1l-0.2-2.5V65h2.8v15.8H14.4z"/>
	<path class="st1" d="M21.4,80.8v-2.4h3.8v-7.5h-3.5v-2.2h6.5v9.8h3.7v2.4H21.4V80.8z M26.7,67l-2.2-2.2l2.2-2.2l2.2,2.2L26.7,67z"
		/>
	<path class="st1" d="M37.5,75.7c0.1,2.5,1.5,2.7,3.2,2.7c0.8,0,2.5-0.1,3.5-0.3l0.4,2.3C43.5,80.7,42,81,40.4,81
		c-3.6,0-5.9-1.3-5.9-6.1c0-5,2.1-6.6,5.6-6.6s4.6,2.6,4.6,6.4v1.1h-7.2V75.7z M39.8,70.6c-1.3,0-2.1,0.9-2.2,3.1h4.1
		C41.7,71.5,41,70.6,39.8,70.6z"/>
	<path class="st1" d="M55.1,80.8v-1.3c-0.7,0.6-1.7,1.6-3.5,1.6c-3.7,0-3.6-2.2-3.6-4.8v-7.7h2.9V76c0,1.8,0.1,2.5,1.6,2.5
		c1,0,2.1-0.6,2.5-1v-8.9h3v12.2C58,80.8,55.1,80.8,55.1,80.8z"/>
	<path class="st1" d="M70.8,80.8h-3.3l-1.2-7.2l0,0l-1.6,7.2h-3l-1.2-12.2H63l0.5,9.9h0.1l1.4-6.8h2.5l1.2,6.8h0.1l0.9-9.9h2.5
		L70.8,80.8z"/>
	<path class="st1" d="M77.6,75.7c0.1,2.5,1.5,2.7,3.2,2.7c0.8,0,2.5-0.1,3.5-0.3l0.4,2.3c-1.1,0.3-2.6,0.6-4.2,0.6
		c-3.6,0-5.9-1.3-5.9-6.1c0-5,2.1-6.6,5.6-6.6s4.6,2.6,4.6,6.4v1.1L77.6,75.7L77.6,75.7z M79.9,70.6c-1.3,0-2.1,0.9-2.2,3.1h4.1
		C81.8,71.5,81.2,70.6,79.9,70.6z"/>
	<path class="st1" d="M109.4,80.8v-9.5l0.3-3.5h-0.1l-0.8,3l-1.3,4.2H105l-1.1-4.2l-0.6-3h-0.1l0.3,3.5v9.5H101l0.2-15.8h3.3
		l1.1,4.6l0.7,3.2h0.1l0.9-3.2l1.4-4.6h3.1l0.2,15.8H109.4z"/>
	<path class="st1" d="M117.8,75.7c0.1,2.5,1.5,2.7,3.2,2.7c0.8,0,2.5-0.1,3.5-0.3l0.4,2.3c-1.1,0.3-2.6,0.6-4.2,0.6
		c-3.6,0-5.9-1.3-5.9-6.1c0-5,2.1-6.6,5.6-6.6s4.6,2.6,4.6,6.4v1.1L117.8,75.7L117.8,75.7z M120.1,70.6c-1.3,0-2.1,0.9-2.2,3.1h4.1
		C122,71.5,121.3,70.6,120.1,70.6z"/>
	<path class="st1" d="M135.3,80.8v-1.1c-0.5,0.6-1.6,1.3-2.8,1.3c-2.2,0-4.6-1-4.6-6.4c0-4.2,2.2-6.3,5.7-6.3c0.8,0,1.2,0.1,1.7,0.2
		V64h3v16.8H135.3z M135.3,70.7c-0.4-0.1-0.9-0.2-1.6-0.2c-2.3,0-2.8,1.9-2.8,4.1c0,2.9,0.8,3.8,2.3,3.8c0.9,0,1.6-0.4,2.1-0.7V70.7
		z"/>
	<path class="st1" d="M141.9,80.8v-2.4h3.8v-7.5h-3.5v-2.2h6.5v9.8h3.7v2.4h-10.5V80.8z M147.1,67l-2.2-2.2l2.2-2.2l2.2,2.2
		L147.1,67z"/>
	<path class="st1" d="M165.4,80.9c-1.4,0.1-3.2-0.1-3.5-1.4c-0.5,0.6-1.5,1.4-3.2,1.4c-2.5,0-3.9-1.2-3.9-3.5c0-3,2.8-3.6,5-3.6h1.8
		v-1.3c0-1.4-0.8-1.6-2.5-1.6c-1.2,0-2,0.2-2.9,0.5l-0.6-2.3c0.8-0.3,2.3-0.8,4.1-0.8c2.5,0,4.9,0.4,4.9,3.5v6c0,0.6,0.4,0.7,1,0.8
		L165.4,80.9z M161.6,75.5l-1.6,0.1c-2,0.1-2.3,0.8-2.3,1.6c0,1,0.5,1.4,1.4,1.4c1,0,2-0.5,2.5-0.7L161.6,75.5L161.6,75.5z"/>
	<path class="st1" d="M7.8,111.1V109c1.2-1.2,6.7-6.2,6.7-8.8c0-2-0.8-2.5-2.3-2.5c-1.6,0-2.6,0.5-3.3,0.7l-1-2.1
		c1-0.6,2.1-1.1,4.4-1.1c4.3,0,5.2,2.6,5.2,4.7c0,3.3-3,6.2-6,8.8h6.6v2.4H7.8z"/>
	<path class="st1" d="M26.1,111.3c-4.8,0-5.2-3.6-5.2-7.9c0-4.1,0.4-8.3,5.6-8.3c5.1,0,5.1,4.1,5.1,7.8
		C31.5,107.7,30.8,111.3,26.1,111.3z M26.3,97.6c-1.9,0-2.5,1.6-2.5,5.8c0,3.7,0.7,5.5,2.4,5.5c2,0,2.5-2,2.5-5.8
		C28.6,99.1,28.2,97.6,26.3,97.6z M26.2,104.4l-1.2-1.2l1.2-1.2l1.2,1.2L26.2,104.4z"/>
	<path class="st1" d="M34.4,111.1v-2.4h3.7V98.4L34.5,99v-2.1l6.6-1.9v13.6h3.7v2.4L34.4,111.1L34.4,111.1z"/>
</g>
<g>
	<path class="st1" d="M51,111.2c-0.9,0-1.5-0.1-2.2-0.4l0.7-2.3c0,0,0.8,0.2,1.6,0.2c3.1,0,3.8-1.4,4.1-3.5
		c-0.7,0.2-1.2,0.4-2.5,0.4c-3.4,0-4.6-2.1-4.6-5.1c0-3.3,2-5.3,5.1-5.3c3.7,0,5.3,2.5,5.3,7C58.4,109.6,55.4,111.2,51,111.2z
		 M53.1,97.7c-1.5,0-2.2,1.1-2.2,2.6c0,2.5,0.7,3,2.1,3c1,0,1.7-0.2,2.4-0.4c0-0.3,0-0.7,0-0.9C55.4,99.6,55,97.7,53.1,97.7z"/>
</g>
</svg>
