<svg id="Layer_1" data-name="Layer 1" xmlns="http://www.w3.org/2000/svg" viewBox="0 0 248.58 283.51"><defs><style>.cls-1{fill:#fff;}.cls-2{fill:#56388a;}</style></defs><title>logo</title><polygon class="cls-1" points="0 94.83 113.43 29.34 113.43 71.8 0 137.29 0 94.83"/><polygon class="cls-1" points="0 241.06 95.57 185.88 95.57 228.33 0 283.51 0 241.06"/><polygon class="cls-1" points="0 192.37 248.58 48.85 248.58 91.31 0 234.83 0 192.37"/><polygon class="cls-1" points="0 143.52 248.58 0 248.58 42.46 0 185.97 0 143.52"/><path class="cls-2" d="M20,116.56c-7.57,4.37-9,.28-9-7.92S12.86,94.13,20,90a10.39,10.39,0,0,1,5.86-1.74l-1.29,4.35a10.94,10.94,0,0,0-4.43,1.57c-3.57,2.06-4.57,5.59-4.57,11.49,0,6.23.57,9,5.14,6.38a4.59,4.59,0,0,0,1.15-.83V103l3.85-2.23v11.48A29.93,29.93,0,0,1,20,116.56Z"/><path class="cls-2" d="M45.43,86a9.26,9.26,0,0,0-3,1.07,12.2,12.2,0,0,0-4.14,4.36v10.17l6-3.47v3.94l-14.43,8.33v-3.94L34,104.05V91.76l-4.14,2.39V90.54l8.43-4.87V88.3a12.51,12.51,0,0,1,5-6,8.48,8.48,0,0,1,2.85-1Z"/><path class="cls-2" d="M56.43,95.53C51,98.66,49,96.05,49,89.65c0-6.72,2.57-12.14,7.72-15.11,5.85-3.38,7.42-.35,7.42,6.2Q63.93,91.2,56.43,95.53Zm.14-17c-3,1.73-3.28,5-3.28,8.45,0,3.77.57,6.07,3.43,4.42s3.14-4.6,3.14-8.21C59.72,79.86,59.57,76.83,56.57,78.56Z"/><path class="cls-2" d="M78.72,82.66c-3.29,1.9-7.29,4.21-7.29-2V70.15l-3.71,2.14V68.68l3.71-2.14v-4.1l4.14-2.39v4.1L83,59.86v3.6l-7.43,4.29V77.92c0,2,1.15,1.63,3,.56a28.1,28.1,0,0,0,4.57-3.3l.43,3.53A23.26,23.26,0,0,1,78.72,82.66Z"/><path class="cls-2" d="M91.72,66.63c.14,4,2.14,3.19,4.57,1.79a49.7,49.7,0,0,0,5-3.38l.57,3.44a38.17,38.17,0,0,1-6,4.45c-5.14,3-8.43,2.73-8.43-5.14,0-8.19,3-12.55,8-15.44s6.57.47,6.57,6.7v1.8L91.72,66.79ZM95,56.21c-1.86,1.07-3,3.21-3.14,6.89l5.86-3.38C97.72,56.12,96.86,55.14,95,56.21Z"/><path class="cls-2" d="M11.57,170.77v-25.9L25.14,137V141l-9.28,5.36v7l8.85-5.12V152l-8.85,5.12v7.21l9.43-5.44v3.93Z"/><path class="cls-2" d="M40.29,144.19l6.14,6.45-4.71,2.73-4.15-4.83-4,9.53-4.71,2.72L35,147.24l-6.14-6.45,4.71-2.72,4,4.74,4-9.36,4.72-2.72Z"/><path class="cls-2" d="M55.86,145.53a13.6,13.6,0,0,1-2.29,1.15v7.87L49.29,157V129l4.28-2.47v1.8a14.85,14.85,0,0,1,4.29-4.6c4-2.31,6.14-.76,6.14,6C64,138,60.72,142.72,55.86,145.53Zm.57-16.89a13.28,13.28,0,0,0-2.86,2.63v11.48A11.56,11.56,0,0,0,56,141.51c3.14-1.81,3.72-4.93,3.72-9C59.72,128.87,59.14,127.07,56.43,128.64Z"/><path class="cls-2" d="M72.57,127.35c.15,4,2.15,3.19,4.57,1.79a47.53,47.53,0,0,0,5-3.38l.58,3.44a38.64,38.64,0,0,1-6,4.45c-5.15,3-8.43,2.73-8.43-5.13,0-8.2,3-12.56,8-15.44s6.57.47,6.57,6.7v1.8l-10.29,5.94Zm3.29-10.42c-1.86,1.07-3,3.21-3.14,6.9l5.85-3.38C78.57,117,77.72,115.86,75.86,116.93Z"/><path class="cls-2" d="M102.72,102.74a9.18,9.18,0,0,0-3,1.07,12.23,12.23,0,0,0-4.15,4.36v10.17l6-3.47v3.94l-14.43,8.33V123.2l4.29-2.47v-12.3l-4.14,2.39v-3.6l8.43-4.87V105a12.56,12.56,0,0,1,5-6,8.62,8.62,0,0,1,2.85-1Z"/><path class="cls-2" d="M116.86,110.31c-3.29,1.9-7.29,4.21-7.29-2V97.79l-3.71,2.15V96.33l3.71-2.14v-4.1l4.15-2.39v4.1l7.43-4.29v3.6l-7.43,4.29v10.17c0,2,1.14,1.63,3,.56a28.71,28.71,0,0,0,4.57-3.3l.43,3.53A18.62,18.62,0,0,1,116.86,110.31Z"/><path class="cls-2" d="M126.15,104.62v-3.93l5.42-3.14V85.26l-5,2.88v-3.6l9.29-5.36v15.9L141.15,92V96Zm7.57-27-3.15-1.8,3.15-5.42,3.14,1.79Z"/><path class="cls-2" d="M151.29,90.43a25.85,25.85,0,0,1-6.14,2.73l.57-4.1a28.32,28.32,0,0,0,5.28-2.4c2.72-1.57,4.29-3,4.29-4.44,0-3.28-9.72,4.3-9.72-3.24,0-4.1,3.72-8,7.43-10.19a18.61,18.61,0,0,1,5.72-2.32l-.86,4.1A19.71,19.71,0,0,0,153,72.72c-2,1.15-3.14,2.47-3.14,3.62,0,3.44,9.71-3.64,9.71,3.24C159.29,84.66,154.15,88.78,151.29,90.43Z"/><path class="cls-2" d="M168.29,72.09c.14,4,2.14,3.19,4.57,1.79a49.7,49.7,0,0,0,5-3.38l.57,3.44a37.7,37.7,0,0,1-6,4.45c-5.14,3-8.43,2.73-8.43-5.14,0-8.19,3-12.55,8-15.43s6.58.46,6.58,6.69v1.81l-10.29,5.94Zm3.29-10.42c-1.86,1.07-3,3.21-3.15,6.9l5.86-3.39C174.29,61.74,173.29,60.68,171.58,61.67Z"/><path class="cls-2" d="M193.29,65.85v-1.8a11.87,11.87,0,0,1-4,4.44c-3.14,1.82-6.57,2.16-6.57-6.7,0-6.88,3.14-12.14,8.14-15a11.39,11.39,0,0,1,2.43-1.07V38.31l4.29-2.47V63.38Zm0-16.39a9.84,9.84,0,0,0-2.29,1c-3.28,1.9-4,5.43-4,9,0,4.76,1.15,5.57,3.29,4.34a11.37,11.37,0,0,0,3-2.88Z"/><path class="cls-2" d="M217.15,52.24c-2,1.32-4.57,2.48-5,.6a12.18,12.18,0,0,1-4.57,4.93C204,59.83,202,59,202,55.25c0-4.92,4-8.21,7.15-10l2.57-1.48V41.61c0-2.3-1.14-2-3.57-.56A20,20,0,0,0,204,44.26L203.15,41A29,29,0,0,1,209,36.29c3.58-2.06,7-3.39,7,1.7v9.83c0,1,.58.82,1.43.49Zm-5.43-5.71L209.43,48c-2.85,1.81-3.28,3.21-3.28,4.52,0,1.64.71,1.88,2,1.14a18.76,18.76,0,0,0,3.57-3.21V46.53Z"/><path class="cls-2" d="M228.29,53.84a22.39,22.39,0,0,1-6.14,2.57l.71-4.35a36.29,36.29,0,0,0,4.86-2.15c2.71-1.57,3.86-2.72,3.86-6.16V42.6A8.33,8.33,0,0,1,228.29,46c-3.57,2.07-7.14,3-7.14-6,0-7,3.43-12.47,8.43-15.35a42.28,42.28,0,0,1,6.28-2.81V41.93C235.72,47.42,232.15,51.62,228.29,53.84Zm3.14-26.07a6.22,6.22,0,0,0-2,.82c-3.43,2-4.14,5-4.14,9,0,4.76,1,5.82,3.86,4.17a9.56,9.56,0,0,0,2.43-2.22V27.68Z"/><path class="cls-2" d="M20.57,215.41,15.29,201.9l-1-3.35-.15.08.29,3.93v16.23L10.57,221V195.28l5.29-3.05,5.43,13.58,1,3.53.14-.09-.29-3.93V188.6l4-2.31v25.9Z"/><path class="cls-2" d="M30.57,209.63V205.7L36,202.57v-12.3l-5,2.89v-3.61l9.29-5.36v16.06l5.28-3.05v3.94l-15,8.66Zm7.57-27L35,180.85l3.14-5.42,3.15,1.79Z"/><path class="cls-2" d="M53.57,188c.15,4,2.15,3.19,4.57,1.79a47.53,47.53,0,0,0,5-3.38l.58,3.44a38.64,38.64,0,0,1-6,4.45c-5.15,3-8.43,2.74-8.43-5.13,0-8.2,3-12.55,8-15.44s6.57.47,6.57,6.7v1.8l-10.29,5.94Zm3.29-10.25c-1.86,1.07-3,3.2-3.14,6.89l5.85-3.38C59.57,177.64,58.57,176.75,56.86,177.74Z"/><path class="cls-2" d="M78.72,181.84v-2.13c-1,1.56-2.43,4-5,5.51-5.29,3.05-5.15-.64-5.15-4.9V167.69l4.15-2.39v12.13c0,2.95.14,4,2.28,2.78a12,12,0,0,0,3.57-3.7V161.92l4.29-2.47v20Z"/><path class="cls-2" d="M101.15,168.89l-4.72,2.72L94.72,160.8h0l-2.29,13.12-4.29,2.47-1.71-19L90,155.32l.72,15.82.14-.08,2-12.31,3.57-2.06,1.71,10.16.15-.08,1.28-17,3.58-2.07Z"/><path class="cls-2" d="M110.86,154.92c.14,4,2.14,3.19,4.57,1.79a49.7,49.7,0,0,0,5-3.38l.57,3.44a37.7,37.7,0,0,1-6,4.45c-5.14,3-8.43,2.73-8.43-5.14,0-8.19,3-12.55,8-15.44s6.58.47,6.58,6.7v1.8l-10.29,5.78Zm3.29-10.26c-1.86,1.07-3,3.21-3.15,6.9l5.86-3.38C116.86,144.57,116,143.59,114.15,144.66Z"/><path class="cls-2" d="M156.29,137.05V121.48l.43-6-.15.09-1.14,5.57-1.86,8L150,131.17l-1.57-6-.86-4.42-.14.08.43,5.49v15.58L144.29,144l.28-26.07,4.72-2.72,1.57,6.64,1,4.66.14-.08,1.29-6,2-8.69,4.43-2.56.28,25.74Z"/><path class="cls-2" d="M168.29,121.76c.14,4,2.14,3.19,4.57,1.79a49.7,49.7,0,0,0,5-3.38l.57,3.44a37.7,37.7,0,0,1-6,4.45c-5.14,3-8.43,2.73-8.43-5.13,0-8.2,3-12.56,8-15.44s6.58.47,6.58,6.69V116l-10.29,5.77Zm3.29-10.26c-1.86,1.08-3,3.21-3.15,6.9l5.86-3.38C174.29,111.41,173.29,110.52,171.58,111.5Z"/><path class="cls-2" d="M193.29,115.69v-1.8a11.94,11.94,0,0,1-4,4.44c-3.14,1.81-6.57,2.15-6.57-6.7,0-6.89,3.14-12.14,8.14-15a10.89,10.89,0,0,1,2.43-1.07V88.15l4.29-2.48v27.54Zm0-16.56a10.3,10.3,0,0,0-2.29,1c-3.28,1.9-4,5.43-4,9,0,4.76,1.15,5.57,3.29,4.34a11.37,11.37,0,0,0,3-2.88Z"/><path class="cls-2" d="M202.72,110.25v-3.94l5.43-3.13V90.88l-5,2.89V90.16l9.28-5.36v16.07l5.29-3.06v3.94l-15,8.66Zm7.43-26.92L207,81.54l3.15-5.42,3.14,1.79Z"/><path class="cls-2" d="M236.29,91c-2,1.31-4.57,2.47-5,.59a12,12,0,0,1-4.57,4.93c-3.57,2.06-5.57,1.25-5.57-2.52,0-4.92,4-8.21,7.14-10l2.57-1.49V80.39c0-2.29-1.14-2-3.57-.56A20.26,20.26,0,0,0,223.15,83l-.86-3.27a29.13,29.13,0,0,1,5.86-4.7c3.57-2.06,7-3.38,7,1.7V86.6c0,1,.57.82,1.43.49Zm-5.43-5.72-2.28,1.48c-2.86,1.82-3.29,3.21-3.29,4.52,0,1.64.71,1.88,2,1.14a18.14,18.14,0,0,0,3.57-3.21V85.31Z"/><path class="cls-2" d="M11.14,270.52v-3.44c1.72-3,9.57-15.69,9.57-19.95,0-3.28-1.14-3.44-3.28-2.2a24.3,24.3,0,0,0-4.72,3.87l-1.42-2.62a19.75,19.75,0,0,1,6.28-5.43c6.14-3.55,7.43,0,7.43,3.41,0,5.41-4.29,12.64-8.57,19.38l9.43-5.45V262Z"/><path class="cls-2" d="M37.29,255.76c-6.86,4-7.43-1.62-7.43-8.67,0-6.72.57-13.93,8-18.22s7.28,2.51,7.28,8.58C45,245.4,44,251.88,37.29,255.76Zm.28-22.63C34.86,234.7,34,237.82,34,244.7c0,6.07,1,8.44,3.43,7,2.86-1.65,3.57-5.34,3.57-11.57C40.86,233.69,40.29,231.57,37.57,233.13Zm-.14,11.23-1.71-1,1.71-3,1.71,1Z"/><path class="cls-2" d="M49.14,248.58v-3.93l5.29-3.05V224.71l-5.14,3.95v-3.44l9.43-8.56V239L64,235.91v3.93l-14.86,8.74Z"/><path class="cls-2" d="M72.86,235.05a7.09,7.09,0,0,1-3.14,1.16l1-4.34a12,12,0,0,0,2.28-1c4.43-2.55,5.43-5.43,5.86-9.12a17.1,17.1,0,0,1-3.57,2.72c-4.86,2.81-6.57.35-6.57-4.56A14.89,14.89,0,0,1,76,207c5.29-3,7.57-.27,7.57,7.1C83.43,226.33,79.14,231.43,72.86,235.05Zm3-23.86a6.8,6.8,0,0,0-3.14,6.08c0,4.1,1,4.34,3,3.18a19.44,19.44,0,0,0,3.42-2.63v-1.48C79.14,212.41,78.57,209.62,75.86,211.19Z"/></svg>